<svg width="56" height="56" viewBox="0 0 56 56" fill="none" xmlns="http://www.w3.org/2000/svg">
<rect width="56" height="56" rx="28" fill="#636AE8" fill-opacity="0.1"/>
<rect width="56" height="56" rx="28" stroke="white"/>
<path d="M34.6504 22.6699C34.6504 20.9062 33.9493 19.2152 32.7022 17.9681C31.533 16.799 29.9739 16.1092 28.3303 16.0277L28.0004 16.0199C26.2367 16.0199 24.5458 16.721 23.2987 17.9681C22.0516 19.2152 21.3504 20.9062 21.3504 22.6699L21.3608 23.0777C21.4155 24.0481 21.7121 25.1408 22.9558 26.3846C23.8986 27.3274 24.8468 28.5212 25.243 30.0732L25.3145 30.3888L25.3339 30.5239C25.3986 31.1948 24.9466 31.8188 24.2715 31.9539C23.5961 32.0889 22.9383 31.6866 22.7402 31.0421L22.7064 30.9109L22.6168 30.5589C22.4015 29.8645 21.9727 29.2261 21.3829 28.586L21.0751 28.2652C19.2926 26.4827 18.8042 24.753 18.7099 23.2829L18.6904 22.6699C18.6904 20.2007 19.6707 17.8321 21.4167 16.0861C23.1626 14.3401 25.5313 13.3599 28.0004 13.3599L28.4615 13.3716C30.7628 13.4856 32.9472 14.4491 34.5842 16.0861C36.3302 17.8321 37.3104 20.2007 37.3104 22.6699C37.3104 24.706 36.5336 26.7867 34.9245 28.264L34.9257 28.2652C33.9497 29.2413 33.4872 29.9468 33.2945 30.9109C33.1503 31.631 32.4495 32.098 31.7294 31.9539C31.0093 31.8098 30.5423 31.109 30.6864 30.3888C31.0256 28.693 31.8932 27.5363 33.0451 26.3846L33.0958 26.3364C34.1115 25.4223 34.6504 24.0701 34.6504 22.6699Z" fill="#636AE8"/>
<path d="M31.9907 34.6699C32.7252 34.6699 33.3207 35.2654 33.3207 35.9999C33.3207 36.7345 32.7252 37.3299 31.9907 37.3299H24.0107C23.2761 37.3299 22.6807 36.7345 22.6807 35.9999C22.6807 35.2654 23.2761 34.6699 24.0107 34.6699H31.9907Z" fill="#636AE8"/>
<path d="M30.6607 40C31.3953 40 31.9907 40.5954 31.9907 41.33C31.9907 42.0646 31.3953 42.66 30.6607 42.66H25.3407C24.6062 42.66 24.0107 42.0646 24.0107 41.33C24.0107 40.5954 24.6062 40 25.3407 40H30.6607Z" fill="#636AE8"/>
</svg>
