<svg width="56" height="56" viewBox="0 0 56 56" fill="none" xmlns="http://www.w3.org/2000/svg">
<rect width="56" height="56" rx="28" fill="#636AE8" fill-opacity="0.1"/>
<rect width="56" height="56" rx="28" stroke="white"/>
<path d="M39.765 18.7058C40.1201 18.6503 40.4858 18.7415 40.7755 18.9617C41.1061 19.2132 41.3002 19.6048 41.3002 20.0202V35.9802C41.3002 36.3836 41.1175 36.7656 40.8028 37.018C40.4881 37.2703 40.0755 37.3664 39.6819 37.2791L15.7419 31.9591C15.1333 31.8238 14.7002 31.2836 14.7002 30.6602L14.7002 26.6702L14.7184 26.4507C14.8023 25.9477 15.1704 25.5282 15.6743 25.3883L39.6143 18.7383L39.765 18.7058ZM17.3602 27.6807V29.5926L38.6402 34.3217V21.7697L17.3602 27.6807Z" fill="#636AE8"/>
<path d="M18.5009 31.8001C18.745 31.1719 19.4296 30.8184 20.0933 31.0013C20.7571 31.1844 21.1645 31.8394 21.0518 32.504L21.0219 32.6365C20.9286 32.9746 20.9034 33.3288 20.9466 33.6768C20.9899 34.0246 21.101 34.3605 21.2739 34.6653C21.4471 34.9704 21.6791 35.2381 21.9558 35.4537C22.2325 35.6692 22.5489 35.8293 22.887 35.9225C23.225 36.0156 23.5782 36.041 23.9261 35.9978C24.2742 35.9546 24.6108 35.8437 24.9158 35.6706C25.2208 35.4975 25.4887 35.2654 25.7041 34.9887C25.9197 34.712 26.0785 34.3954 26.1718 34.0575L26.2146 33.9289C26.4584 33.3003 27.1432 32.946 27.807 33.1287C28.5151 33.3241 28.931 34.0572 28.7356 34.7653L28.6603 35.016C28.4689 35.5966 28.1783 36.1407 27.8018 36.6238C27.3717 37.1759 26.8374 37.6384 26.229 37.9838C25.6201 38.3293 24.9482 38.5509 24.2534 38.6371C23.5588 38.7233 22.854 38.6726 22.1792 38.4864C21.5043 38.3003 20.8728 37.9828 20.3206 37.5526C19.7683 37.1223 19.3063 36.5873 18.9607 35.9784C18.6152 35.3695 18.3923 34.6988 18.3061 34.0041C18.2198 33.3095 18.2719 32.6047 18.458 31.93L18.5009 31.8001Z" fill="#636AE8"/>
</svg>
