<svg width="20" height="20" viewBox="0 0 20 20" fill="none" xmlns="http://www.w3.org/2000/svg">
<path d="M10.8349 5.85012C10.8349 5.40986 11.0099 4.98776 11.3212 4.67645C11.6325 4.36514 12.0547 4.19012 12.4949 4.19012H14.1549V2.53012L12.4949 2.53012C11.6144 2.53012 10.7702 2.88015 10.1476 3.50278C9.52491 4.12539 9.1749 4.96959 9.1749 5.85012L9.1749 8.34012C9.1749 8.79853 8.80331 9.17012 8.3449 9.17012H6.6849L6.6849 10.8301H8.3449C8.80331 10.8301 9.1749 11.2017 9.1749 11.6601V17.4701H10.8349V11.6601C10.8349 11.2017 11.2065 10.8301 11.6649 10.8301H13.5073L13.9223 9.17012H11.6649C11.2065 9.17012 10.8349 8.79853 10.8349 8.34012L10.8349 5.85012ZM12.4949 7.51012L14.9849 7.51012C15.2405 7.51012 15.4817 7.62802 15.639 7.82948C15.7962 8.03087 15.8517 8.29326 15.7898 8.54114L14.9598 11.8611C14.8674 12.2307 14.5358 12.4901 14.1549 12.4901H12.4949V18.3001C12.4949 18.7585 12.1233 19.1301 11.6649 19.1301H8.3449C7.88651 19.1301 7.5149 18.7585 7.5149 18.3001L7.5149 12.4901H5.8549C5.39651 12.4901 5.0249 12.1185 5.0249 11.6601L5.0249 8.34012L5.02895 8.25501C5.07156 7.83658 5.42523 7.51012 5.8549 7.51012L7.5149 7.51012V5.85012C7.5149 4.52934 8.03995 3.26303 8.97388 2.3291C9.90779 1.39517 11.1741 0.870117 12.4949 0.870117L14.9849 0.870117L15.07 0.874168C15.4885 0.916771 15.8149 1.27044 15.8149 1.70012L15.8149 5.02012C15.8149 5.47851 15.4433 5.85012 14.9849 5.85012L12.4949 5.85012L12.4949 7.51012Z" fill="#8C8D8B"/>
</svg>
