<svg width="20" height="20" viewBox="0 0 20 20" fill="none" xmlns="http://www.w3.org/2000/svg">
<path d="M16.6402 4.18995C16.6402 3.96982 16.5527 3.75877 16.397 3.60312C16.2414 3.44746 16.0303 3.35995 15.8102 3.35995L4.1902 3.35995C3.97006 3.35995 3.75902 3.44746 3.60336 3.60312C3.4477 3.75877 3.3602 3.96982 3.3602 4.18995L3.3602 15.4662L5.26336 13.5631L5.32415 13.508C5.47186 13.3869 5.65756 13.32 5.8502 13.32L15.8102 13.32C16.0303 13.32 16.2414 13.2325 16.397 13.0768C16.5527 12.9211 16.6402 12.7101 16.6402 12.49V4.18995ZM18.3002 12.49C18.3002 13.1504 18.0377 13.7835 17.5707 14.2505C17.1038 14.7174 16.4706 14.98 15.8102 14.98L6.19387 14.98L3.11703 18.0568C2.87965 18.2941 2.52261 18.3652 2.21246 18.2367C1.90237 18.1082 1.7002 17.8056 1.7002 17.47L1.7002 4.18995C1.7002 3.52956 1.96272 2.89641 2.42969 2.42945C2.89666 1.96248 3.52981 1.69995 4.1902 1.69995L15.8102 1.69995C16.4705 1.69995 17.1038 1.96248 17.5707 2.42945C18.0377 2.89641 18.3002 3.52956 18.3002 4.18995L18.3002 12.49Z" fill="#636AE8"/>
</svg>
