<svg width="20" height="20" viewBox="0 0 20 20" fill="none" xmlns="http://www.w3.org/2000/svg">
<g clip-path="url(#clip0_1_614)">
<path d="M5.94156 0.873101C6.54286 0.869139 7.12524 1.08316 7.5813 1.47533C7.98208 1.82001 8.26189 2.28167 8.38209 2.79248L8.42342 3.01457L8.42425 3.02186L8.46484 3.29745C8.56759 3.93661 8.73284 4.56445 8.95927 5.17143L9.01596 5.34002C9.13373 5.73755 9.15067 6.15906 9.06377 6.56638C8.9645 7.03192 8.73384 7.45912 8.3991 7.7976L8.39586 7.80165L7.80177 8.39498C8.77775 9.92625 10.0769 11.2244 11.6081 12.2005L12.2055 11.6039L12.3368 11.484C12.6517 11.2142 13.0293 11.0262 13.4367 10.9393C13.9014 10.8402 14.3851 10.8763 14.83 11.043C15.4376 11.2698 16.0666 11.4363 16.7064 11.5391L16.9812 11.5788L16.9885 11.5796C17.5932 11.6649 18.1459 11.9696 18.5407 12.4356C18.9311 12.8962 19.1391 13.4833 19.1292 14.0866L19.13 16.5734L19.1275 16.7031C19.113 17.0054 19.0432 17.3029 18.9217 17.5809C18.7827 17.8986 18.579 18.1838 18.3235 18.4182C18.068 18.6525 17.7667 18.8316 17.4384 18.9426C17.151 19.0398 16.8483 19.083 16.546 19.0715L16.4162 19.0634C16.4113 19.063 16.4059 19.0623 16.4009 19.0618C13.718 18.7702 11.1408 17.8537 8.87652 16.3854C6.77126 15.0462 4.98598 13.26 3.64772 11.1541C2.17661 8.88103 1.26051 6.2931 0.974535 3.60059L0.972909 3.58763C0.941808 3.24343 0.983408 2.89629 1.09368 2.56877C1.20401 2.24119 1.38103 1.93975 1.61405 1.68446C1.84711 1.42915 2.13108 1.22514 2.4473 1.08547C2.76343 0.945853 3.10515 0.873435 3.45076 0.873101L5.94156 0.873101ZM3.36645 2.53797C3.28082 2.54696 3.1967 2.56869 3.11762 2.60362C3.01224 2.65018 2.91809 2.71873 2.84041 2.80382C2.7628 2.88885 2.70374 2.98896 2.66695 3.09805C2.63158 3.20308 2.6174 3.31427 2.62561 3.42471L2.68073 3.88023C2.96919 6.00069 3.69095 8.03906 4.80113 9.86856L5.04429 10.2576L5.04834 10.2633L5.28016 10.6167C6.3818 12.2493 7.78694 13.6553 9.41959 14.7569L9.773 14.988L9.77947 14.992L10.1669 15.2352C12.1143 16.4185 14.2991 17.1614 16.5678 17.4099C16.6823 17.4199 16.7979 17.407 16.9066 17.3702C17.016 17.3332 17.1166 17.2732 17.2017 17.1951C17.2867 17.117 17.3548 17.0221 17.4011 16.9163C17.4473 16.8103 17.4704 16.6955 17.47 16.5799V14.0866L17.4708 14.0664C17.4758 13.8629 17.4054 13.6641 17.2738 13.5087C17.1438 13.3554 16.9626 13.254 16.764 13.2243C15.9052 13.111 15.0621 12.9013 14.2505 12.5985L14.248 12.5977C14.0997 12.542 13.9385 12.5299 13.7836 12.5628C13.6284 12.5959 13.4855 12.6733 13.3726 12.7849L12.3222 13.8354C12.058 14.0996 11.6492 14.1546 11.3244 13.9699C9.11672 12.7145 7.28849 10.8864 6.03315 8.67867C5.84861 8.35389 5.90437 7.94584 6.16852 7.68169L7.21818 6.63042C7.32975 6.51759 7.40716 6.37546 7.44027 6.22028C7.47336 6.06509 7.46124 5.90357 7.40541 5.75502L7.4046 5.7534C7.10264 4.9442 6.8932 4.10339 6.77967 3.24719L6.76589 3.17263C6.7258 3.00255 6.63264 2.84893 6.49922 2.73411C6.36562 2.61922 6.19941 2.54966 6.02505 2.53554L5.94967 2.5331L3.45238 2.5331L3.36645 2.53797Z" fill="#8C8D8B"/>
</g>
<defs>
<clipPath id="clip0_1_614">
<rect width="20" height="20" fill="white"/>
</clipPath>
</defs>
</svg>
