<svg width="12" height="12" viewBox="0 0 12 12" fill="none" xmlns="http://www.w3.org/2000/svg">
<g clip-path="url(#clip0_1_580)">
<path d="M13.9399 11.1672L0.740661 11.1672C0.219962 11.1672 -0.202148 11.5893 -0.202148 12.11V12.11C-0.202148 12.6307 0.219962 13.0529 0.740661 13.0529L13.9399 13.0529C14.4606 13.0529 14.8828 12.6307 14.8828 12.11C14.8828 11.5893 14.4606 11.1672 13.9399 11.1672Z" fill="#EBEBEA"/>
<path d="M11.7286 11.1672L6.07172 11.1672C5.55102 11.1672 5.12891 11.5893 5.12891 12.11V12.11C5.12891 12.6307 5.55102 13.0529 6.07172 13.0529L11.7286 13.0529C12.2493 13.0529 12.6714 12.6307 12.6714 12.11C12.6714 11.5893 12.2493 11.1672 11.7286 11.1672Z" fill="#EBEBEA"/>
</g>
<defs>
<clipPath id="clip0_1_580">
<rect width="12" height="12" fill="white"/>
</clipPath>
</defs>
</svg>
