<svg width="16" height="16" viewBox="0 0 16 16" fill="none" xmlns="http://www.w3.org/2000/svg">
<g clip-path="url(#clip0_1_896)">
<path d="M14.0397 0.684536C14.1934 0.630895 14.3575 0.615394 14.518 0.639391L14.588 0.652476L14.6567 0.670144C14.793 0.710867 14.9189 0.780413 15.0264 0.87363L15.0787 0.922044L15.1271 0.973734C15.2203 1.08111 15.2893 1.20724 15.3299 1.34341L15.3483 1.41277L15.3614 1.48278C15.3852 1.64284 15.3689 1.80637 15.3156 1.95976L15.3162 1.96042L10.9612 14.6904C10.8947 14.8842 10.7705 15.054 10.6053 15.1752C10.4399 15.2966 10.241 15.3643 10.0361 15.3696C9.83119 15.3748 9.62958 15.3173 9.45833 15.2047C9.30832 15.106 9.18785 14.9691 9.10893 14.8089L9.0775 14.7389L6.94711 9.42529L6.91896 9.36378C6.88761 9.30402 6.84714 9.24941 6.79924 9.20151C6.73525 9.13759 6.65878 9.08727 6.57483 9.05364L1.26128 6.92257C1.07107 6.84626 0.90875 6.71366 0.796076 6.54246C0.683389 6.37113 0.625942 6.16905 0.631189 5.96406L0.635772 5.88751C0.653956 5.70998 0.719402 5.54009 0.825516 5.39547L0.872631 5.33528C0.988909 5.19977 1.13992 5.09776 1.3097 5.03954L14.0397 0.684536ZM2.59735 6.01444L7.07206 7.80918H7.07273C7.32472 7.91002 7.55392 8.06103 7.74601 8.25279C7.91412 8.42062 8.05093 8.61673 8.15036 8.83187L8.19029 8.92473L8.19096 8.92607L9.98502 13.4021L13.8271 2.17306L2.59735 6.01444Z" fill="white"/>
<path d="M14.1142 0.939343C14.3759 0.677821 14.8 0.677721 15.0616 0.939343C15.3231 1.20096 15.3231 1.62515 15.0616 1.88676L7.73153 9.21621L7.68048 9.26198C7.41744 9.47644 7.02937 9.4613 6.78415 9.21621C6.52248 8.95451 6.52246 8.52973 6.78415 8.2681L14.1142 0.939343Z" fill="white"/>
</g>
<defs>
<clipPath id="clip0_1_896">
<rect width="16" height="16" fill="white"/>
</clipPath>
</defs>
</svg>
