<svg width="20" height="20" viewBox="0 0 20 20" fill="none" xmlns="http://www.w3.org/2000/svg">
<path d="M4.16992 16.64L4.16992 3.36003C4.16992 2.90164 4.54153 2.53003 4.99992 2.53003C5.45831 2.53003 5.82992 2.90164 5.82992 3.36003L5.82992 16.64C5.82992 17.0984 5.45831 17.47 4.99992 17.47C4.54153 17.47 4.16992 17.0984 4.16992 16.64Z" fill="#636AE8"/>
<path d="M7.98965 2.6118C8.27721 2.47359 8.61912 2.51219 8.86828 2.7115L17.1683 9.35154L17.238 9.41471C17.3917 9.56934 17.4795 9.77941 17.4795 9.99994C17.4795 10.2521 17.3652 10.4909 17.1683 10.6484L8.86828 17.2883C8.61912 17.4877 8.27721 17.5263 7.98965 17.3881C7.70223 17.2498 7.51953 16.9589 7.51953 16.6399L7.51953 3.35994C7.51953 3.04098 7.70223 2.75006 7.98965 2.6118ZM9.17953 14.9119L15.3202 9.99994L9.17953 5.08722L9.17953 14.9119Z" fill="#636AE8"/>
</svg>
