<svg width="20" height="20" viewBox="0 0 20 20" fill="none" xmlns="http://www.w3.org/2000/svg">
<g clip-path="url(#clip0_1_134)">
<path d="M11.3073 3.02298C12.7325 2.28046 14.5918 2.32673 16.0684 3.49067C16.1406 3.47324 16.2242 3.45108 16.3181 3.41934C16.5489 3.34133 16.7971 3.23296 17.0322 3.11782C17.2653 3.00368 17.4739 2.88854 17.6247 2.8017C17.6997 2.75849 17.7595 2.72233 17.7998 2.69795C17.8199 2.68578 17.8355 2.67637 17.8452 2.6704C17.8498 2.66754 17.8529 2.66514 17.8549 2.66392H17.8565C18.1531 2.47659 18.536 2.49537 18.8121 2.71173C19.0535 2.90101 19.1678 3.20529 19.1185 3.50121L19.087 3.62765V3.62927L19.0861 3.6309C19.0855 3.63252 19.0845 3.63492 19.0836 3.63738C19.082 3.64226 19.08 3.64882 19.0772 3.65684C19.0715 3.6731 19.0639 3.6958 19.0537 3.72411C19.0332 3.78095 19.0027 3.86151 18.9637 3.95998C18.886 4.15642 18.7707 4.42869 18.6192 4.73729C18.3695 5.24597 18.0011 5.88897 17.5153 6.45727C18.5858 15.1095 9.18505 21.3675 1.60666 16.739L1.24111 16.5072C0.930071 16.3011 0.795473 15.912 0.911213 15.5573C1.02704 15.2029 1.3647 14.9691 1.73716 14.9858C2.86664 15.0372 3.98438 14.8026 4.94692 14.3212C1.32718 12.324 -0.265272 7.59957 1.80038 3.79868L1.85469 3.71195C1.99223 3.51969 2.20719 3.39354 2.44558 3.36909C2.71798 3.34129 2.98684 3.45022 3.16373 3.65927C4.63177 5.39405 6.81661 6.48434 9.07989 6.66234C9.08902 5.00828 10.0199 3.69379 11.3073 3.02298ZM15.2433 4.96749C14.2722 4.06135 13.018 4.00446 12.0749 4.49575C11.1497 4.97777 10.5212 5.98652 10.8113 7.34077C10.8628 7.58163 10.8051 7.83346 10.6532 8.0273C10.5011 8.22116 10.2704 8.3378 10.0242 8.34503C7.3885 8.42251 4.75852 7.43798 2.80708 5.67104C1.84439 8.80879 3.64578 12.378 6.91817 13.3599C7.20744 13.4467 7.42719 13.684 7.49123 13.9791C7.54723 14.2374 7.47647 14.5046 7.30562 14.7005L7.22619 14.78C6.45327 15.4562 5.53838 15.9517 4.55867 16.2633C10.5435 18.0928 16.8911 13.0098 15.8204 6.31786C15.7785 6.05522 15.8651 5.78864 16.0531 5.60052C16.2039 5.44964 16.3443 5.27832 16.4761 5.0988C16.2612 5.15173 16.0342 5.1912 15.8099 5.1912C15.5996 5.1912 15.397 5.11093 15.2433 4.96749Z" fill="#8C8D8B"/>
</g>
<defs>
<clipPath id="clip0_1_134">
<rect width="20" height="20" fill="white"/>
</clipPath>
</defs>
</svg>
