<svg width="56" height="56" viewBox="0 0 56 56" fill="none" xmlns="http://www.w3.org/2000/svg">
<rect width="56" height="56" rx="28" fill="#636AE8" fill-opacity="0.1"/>
<rect width="56" height="56" rx="28" stroke="white"/>
<path d="M28.0237 26.6699L28.16 26.6764C28.8306 26.7445 29.3537 27.3112 29.3537 27.9999C29.3537 28.6886 28.8306 29.2553 28.16 29.3234L28.0237 29.3299H28.0107C27.2761 29.3299 26.6807 28.7345 26.6807 27.9999C26.6807 27.2654 27.2761 26.6699 28.0107 26.6699H28.0237Z" fill="#636AE8"/>
<path d="M31.9906 19.9898V17.3298C31.9906 16.9771 31.8504 16.6389 31.6009 16.3895C31.3826 16.1712 31.0963 16.0365 30.7917 16.0063L30.6606 15.9998L25.3406 15.9998C24.9878 15.9998 24.6497 16.1401 24.4002 16.3895C24.1508 16.6389 24.0106 16.9771 24.0106 17.3298V19.9898C24.0106 20.7244 23.4151 21.3198 22.6806 21.3198C21.9461 21.3198 21.3506 20.7244 21.3506 19.9898V17.3298C21.3506 16.2716 21.7713 15.2571 22.5195 14.5088C23.2678 13.7605 24.2824 13.3398 25.3406 13.3398H30.6606L31.0555 13.3593C31.9686 13.4501 32.827 13.8542 33.4816 14.5088C34.2299 15.2571 34.6506 16.2716 34.6506 17.3298V19.9898C34.6506 20.7244 34.0551 21.3198 33.3206 21.3198C32.586 21.3198 31.9906 20.7244 31.9906 19.9898Z" fill="#636AE8"/>
<path d="M40.5679 28.2345C41.1809 27.83 42.0063 27.9996 42.4109 28.6123C42.8153 29.2253 42.6459 30.0509 42.033 30.4554C38.1295 33.0325 33.5967 34.481 28.9342 34.652L28.0004 34.6689C23.3228 34.6689 18.7415 33.3816 14.7563 30.9555L13.9679 30.4554L13.8575 30.3737C13.3359 29.9473 13.211 29.1868 13.5899 28.6123C13.9693 28.0376 14.7188 27.8529 15.3161 28.1656L15.433 28.2345L16.1395 28.6826C19.7086 30.8554 23.8112 32.0089 28.0004 32.0089L28.8369 31.9945C33.0124 31.8413 37.072 30.5424 40.5679 28.2345Z" fill="#636AE8"/>
<path d="M39.9701 22.6799C39.9701 21.9454 39.3747 21.3499 38.6401 21.3499L17.3601 21.3499C16.6256 21.3499 16.0301 21.9454 16.0301 22.6799L16.0301 35.9799C16.0301 36.7145 16.6256 37.3099 17.3601 37.3099L38.6401 37.3099C39.3747 37.3099 39.9701 36.7145 39.9701 35.9799V22.6799ZM42.6301 35.9799C42.6301 38.1836 40.8438 39.9699 38.6401 39.9699L17.3601 39.9699C15.1565 39.9699 13.3701 38.1836 13.3701 35.9799L13.3701 22.6799C13.3701 20.4763 15.1565 18.6899 17.3601 18.6899L38.6401 18.6899C40.8438 18.6899 42.6301 20.4763 42.6301 22.6799V35.9799Z" fill="#636AE8"/>
</svg>
