<svg width="56" height="56" viewBox="0 0 56 56" fill="none" xmlns="http://www.w3.org/2000/svg">
<rect width="56" height="56" rx="28" fill="#636AE8" fill-opacity="0.1"/>
<rect width="56" height="56" rx="28" stroke="white"/>
<path d="M32.392 27.8992C33.07 27.7787 33.7196 28.1948 33.9038 28.8435L33.9336 28.9759L35.9495 40.3147L35.9507 40.3264L35.9702 40.477C36.0024 40.8292 35.9407 41.1852 35.7896 41.5071C35.6171 41.8743 35.3366 42.1799 34.9858 42.3837C34.6343 42.5876 34.2282 42.68 33.8232 42.6474C33.437 42.6161 33.0693 42.4724 32.7635 42.2356L28.0045 38.6639L23.2365 42.2356C22.9312 42.4713 22.5645 42.6148 22.1793 42.6461C21.7748 42.6788 21.3693 42.587 21.0181 42.3837C20.6673 42.1806 20.3871 41.8749 20.2141 41.5083C20.0412 41.1413 19.9838 40.7293 20.0505 40.3289L20.0531 40.316L22.0663 28.9759L22.0974 28.8435C22.2817 28.1951 22.9301 27.7789 23.608 27.8992C24.3312 28.0276 24.8143 28.7178 24.686 29.4409L22.9664 39.1145L26.4122 36.5351L26.4134 36.5338L26.5902 36.413C27.0127 36.1474 27.5025 36.0052 28.0045 36.0051C28.5067 36.0051 28.9975 36.1473 29.4203 36.413L29.5969 36.5338L29.5994 36.5351L33.0323 39.112L31.3152 29.4409L31.2984 29.3058C31.2482 28.6337 31.7141 28.0197 32.392 27.8992Z" fill="#636AE8"/>
<path d="M34.6504 22.6699C34.6504 18.9972 31.6731 16.0199 28.0004 16.0199C24.3277 16.0199 21.3504 18.9972 21.3504 22.6699C21.3504 26.3425 24.3277 29.3199 28.0004 29.3199C31.6731 29.3199 34.6504 26.3425 34.6504 22.6699ZM37.3104 22.6699C37.3104 27.8116 33.1422 31.9799 28.0004 31.9799C22.8587 31.9799 18.6904 27.8116 18.6904 22.6699C18.6904 17.5281 22.8587 13.3599 28.0004 13.3599C33.1422 13.3599 37.3104 17.5281 37.3104 22.6699Z" fill="#636AE8"/>
</svg>
