<svg width="20" height="20" viewBox="0 0 20 20" fill="none" xmlns="http://www.w3.org/2000/svg">
<path d="M2.53027 16.6401L2.53027 3.36012C2.53027 2.69973 2.7928 2.06658 3.25977 1.59961C3.72673 1.13265 4.35988 0.870117 5.02027 0.870117L12.4903 0.870117L12.5721 0.874168C12.7622 0.893 12.9409 0.977046 13.0771 1.11328L17.2271 5.26328C17.3828 5.41894 17.4703 5.62998 17.4703 5.85012L17.4703 16.6401C17.4703 17.3005 17.2077 17.9337 16.7408 18.4006C16.2738 18.8676 15.6407 19.1301 14.9803 19.1301L5.02027 19.1301C4.35988 19.1301 3.72673 18.8676 3.25977 18.4006C2.7928 17.9337 2.53027 17.3005 2.53027 16.6401ZM4.19027 16.6401C4.19027 16.8602 4.27778 17.0713 4.43344 17.2269C4.5891 17.3826 4.80014 17.4701 5.02027 17.4701L14.9803 17.4701C15.2004 17.4701 15.4115 17.3826 15.5671 17.2269C15.7228 17.0713 15.8103 16.8602 15.8103 16.6401L15.8103 6.19379L12.1466 2.53012L5.02027 2.53012C4.80014 2.53012 4.5891 2.61762 4.43344 2.77328C4.27778 2.92894 4.19027 3.13998 4.19027 3.36012L4.19027 16.6401Z" fill="#636AE8"/>
<path d="M10.8506 5.0001L10.8506 1.6801C10.8506 1.22171 11.2222 0.850098 11.6806 0.850098C12.139 0.850098 12.5106 1.22171 12.5106 1.6801L12.5106 5.0001C12.5106 5.22023 12.5981 5.43127 12.7538 5.58693C12.9094 5.74259 13.1205 5.8301 13.3406 5.8301L16.6606 5.8301C17.119 5.8301 17.4906 6.2017 17.4906 6.6601C17.4906 7.11849 17.119 7.4901 16.6606 7.4901L13.3406 7.4901C12.6802 7.4901 12.047 7.22757 11.5801 6.7606C11.1131 6.29364 10.8506 5.66049 10.8506 5.0001Z" fill="#636AE8"/>
<path d="M8.32984 6.67017C8.78825 6.67017 9.15984 7.04177 9.15984 7.50017C9.15984 7.95856 8.78825 8.33017 8.32984 8.33017H6.66984C6.21145 8.33017 5.83984 7.95856 5.83984 7.50017C5.83984 7.04177 6.21145 6.67017 6.66984 6.67017L8.32984 6.67017Z" fill="#636AE8"/>
<path d="M13.3206 10C13.779 10 14.1506 10.3716 14.1506 10.83C14.1506 11.2884 13.779 11.66 13.3206 11.66L6.68059 11.66C6.22219 11.66 5.85059 11.2884 5.85059 10.83C5.85059 10.3716 6.22219 10 6.68059 10L13.3206 10Z" fill="#636AE8"/>
<path d="M13.3206 13.3401C13.779 13.3401 14.1506 13.7117 14.1506 14.1701C14.1506 14.6285 13.779 15.0001 13.3206 15.0001L6.68059 15.0001C6.22219 15.0001 5.85059 14.6285 5.85059 14.1701C5.85059 13.7117 6.22219 13.3401 6.68059 13.3401L13.3206 13.3401Z" fill="#636AE8"/>
</svg>
