<svg width="16" height="16" viewBox="0 0 16 16" fill="none" xmlns="http://www.w3.org/2000/svg">
<path d="M14.3401 4.09475C14.6522 3.89609 15.0665 3.98816 15.2652 4.3002C15.4639 4.61228 15.3718 5.02662 15.0598 5.22538L9.03572 9.06217C9.02808 9.067 9.02058 9.07202 9.0128 9.07658C8.74447 9.23242 8.44391 9.32381 8.13537 9.34418L8.00325 9.34813C7.64868 9.34813 7.30022 9.2546 6.99362 9.07658C6.98585 9.07202 6.97775 9.06706 6.97011 9.06217L0.940094 5.22538L0.884477 5.18547C0.61785 4.97514 0.548403 4.59288 0.734645 4.3002C0.920932 4.00756 1.29684 3.90822 1.60028 4.06073L1.65982 4.09475L7.67019 7.91976C7.77149 7.97778 7.88647 8.00813 8.00325 8.00813L8.09088 8.00284C8.17664 7.99151 8.25939 7.9629 8.33496 7.91976L14.3401 4.09475Z" fill="#8C8D8B"/>
<path d="M14.0299 3.97997C14.0299 3.60994 13.7299 3.30997 13.3599 3.30997L2.63988 3.30997C2.26986 3.30997 1.96988 3.60994 1.96988 3.97997L1.96988 12.02C1.96988 12.39 2.26986 12.69 2.63988 12.69L13.3599 12.69C13.7299 12.69 14.0299 12.39 14.0299 12.02L14.0299 3.97997ZM15.3699 12.02C15.3699 13.1301 14.47 14.03 13.3599 14.03L2.63988 14.03C1.52979 14.03 0.629883 13.1301 0.629883 12.02L0.629883 3.97997C0.629883 2.86988 1.52979 1.96997 2.63988 1.96997L13.3599 1.96997C14.47 1.96997 15.3699 2.86988 15.3699 3.97997L15.3699 12.02Z" fill="#8C8D8B"/>
</svg>
