<svg width="20" height="20" viewBox="0 0 20 20" fill="none" xmlns="http://www.w3.org/2000/svg">
<path d="M15.803 8.05237C15.7318 6.61623 15.1305 5.25302 14.1089 4.23145C13.0874 3.20989 11.7242 2.60857 10.288 2.53741L10.0003 2.53012C8.45938 2.53012 6.9812 3.14187 5.89161 4.23145C4.80202 5.32104 4.19027 6.79921 4.19027 8.34012C4.19027 10.1323 5.20021 12.0644 6.51249 13.7887C7.78057 15.4546 9.23626 16.803 10.0003 17.466C10.7643 16.803 12.2199 15.4546 13.488 13.7887C14.8003 12.0644 15.8103 10.1323 15.8103 8.34012L15.803 8.05237ZM17.4703 8.34012C17.4703 10.6921 16.1816 12.9906 14.8092 14.7937C13.5917 16.3934 12.2273 17.7074 11.3742 18.4695L11.0418 18.7613C11.0277 18.7735 11.013 18.7857 10.998 18.797C10.7464 18.9862 10.4468 19.0991 10.1348 19.1245L10.0003 19.1301C9.68545 19.1301 9.37811 19.0404 9.1135 18.8731L9.00253 18.797L8.95871 18.7613C8.16583 18.0767 6.58273 16.6219 5.19129 14.7937C3.81895 12.9906 2.53027 10.6921 2.53027 8.34012C2.53027 6.35895 3.31704 4.45868 4.71794 3.05778C6.11884 1.65688 8.0191 0.870117 10.0003 0.870117C11.9814 0.870117 13.8817 1.65688 15.2826 3.05778C16.6835 4.45868 17.4703 6.35895 17.4703 8.34012Z" fill="#8C8D8B"/>
<path d="M11.6607 8.33025C11.6607 7.41346 10.9175 6.67025 10.0007 6.67025C9.08385 6.67025 8.34066 7.41346 8.34066 8.33025C8.34066 9.24707 9.08385 9.99025 10.0007 9.99025C10.9175 9.99025 11.6607 9.24707 11.6607 8.33025ZM13.3207 8.33025C13.3207 10.1638 11.8342 11.6503 10.0007 11.6503C8.16708 11.6503 6.68066 10.1638 6.68066 8.33025C6.68066 6.49667 8.16708 5.01025 10.0007 5.01025C11.8342 5.01025 13.3207 6.49667 13.3207 8.33025Z" fill="#8C8D8B"/>
</svg>
